<svg xmlns="http://www.w3.org/2000/svg" viewBox="0 0 640 640" width="640" height="640" role="img">

  <defs>
    <linearGradient id="bg106" x1="0" y1="0" x2="1" y2="1">
      <stop offset="0%" stop-color="#FFF1EC"/>
      <stop offset="100%" stop-color="#FFDCD0"/>
    </linearGradient>
    <radialGradient id="glow106" cx="30%" cy="22%" r="70%">
      <stop offset="0%" stop-color="#ffffff" stop-opacity="0.92"/>
      <stop offset="100%" stop-color="#ffffff" stop-opacity="0"/>
    </radialGradient>
    <filter id="soft106" x="-30%" y="-30%" width="160%" height="160%">
      <feDropShadow dx="0" dy="10" stdDeviation="12" flood-color="#9C3A22" flood-opacity="0.16"/>
    </filter>
    <pattern id="dots106" width="18" height="18" patternUnits="userSpaceOnUse">
      <circle cx="2" cy="2" r="1.5" fill="#9C3A22" fill-opacity="0.10"/>
    </pattern>
  </defs>
  <rect width="640" height="640" fill="url(#bg106)"/>
  <rect width="640" height="640" fill="url(#dots106)"/>
  <rect width="640" height="640" fill="url(#glow106)"/>
  <ellipse cx="320" cy="524" rx="150" ry="24" fill="#9C3A22" fill-opacity="0.10"/>

  <g transform="translate(320 300) rotate(-18)" filter="url(#soft2)">
    <rect x="-30" y="-190" width="60" height="286" rx="8" fill="#F06A45"/>
    <rect x="-30" y="-190" width="22" height="286" fill="#ffffff" fill-opacity="0.16"/>
    <rect x="-30" y="-190" width="60" height="286" rx="8" fill="none" stroke="#9C3A22" stroke-opacity="0.18" stroke-width="2"/>
    <path d="M-30 -190 L30 -190 L0 -252 Z" fill="#F7E3C4"/>
    <path d="M-13 -212 L13 -212 L0 -252 Z" fill="#9C3A22"/>
    <rect x="-30" y="-190" width="60" height="22" fill="#9C3A22" fill-opacity="0.55"/>
    <rect x="-30" y="72" width="60" height="24" rx="6" fill="#9C3A22" fill-opacity="0.75"/>
  </g>
</svg>