<svg xmlns="http://www.w3.org/2000/svg" viewBox="0 0 640 640" width="640" height="640" role="img">

  <defs>
    <linearGradient id="bg141" x1="0" y1="0" x2="1" y2="1">
      <stop offset="0%" stop-color="#F3F0FE"/>
      <stop offset="100%" stop-color="#E4DCFD"/>
    </linearGradient>
    <radialGradient id="glow141" cx="30%" cy="22%" r="70%">
      <stop offset="0%" stop-color="#ffffff" stop-opacity="0.92"/>
      <stop offset="100%" stop-color="#ffffff" stop-opacity="0"/>
    </radialGradient>
    <filter id="soft141" x="-30%" y="-30%" width="160%" height="160%">
      <feDropShadow dx="0" dy="10" stdDeviation="12" flood-color="#4A2E9E" flood-opacity="0.16"/>
    </filter>
    <pattern id="dots141" width="18" height="18" patternUnits="userSpaceOnUse">
      <circle cx="2" cy="2" r="1.5" fill="#4A2E9E" fill-opacity="0.10"/>
    </pattern>
  </defs>
  <rect width="640" height="640" fill="url(#bg141)"/>
  <rect width="640" height="640" fill="url(#dots141)"/>
  <rect width="640" height="640" fill="url(#glow141)"/>
  <ellipse cx="320" cy="524" rx="150" ry="24" fill="#4A2E9E" fill-opacity="0.10"/>

  <g transform="translate(320 300) rotate(-6)" filter="url(#soft11)">
    <rect x="-190" y="-88" width="380" height="176" rx="60" fill="#7C4DE8"/>
    <rect x="-190" y="-88" width="380" height="176" rx="60" fill="#ffffff" fill-opacity="0.14"/>
    <path d="M-190 -6 L190 -6 L190 28 L-190 28 Z" fill="#4A2E9E" fill-opacity="0.35"/>
    <rect x="-152" y="-118" width="150" height="26" rx="13" fill="#4A2E9E" fill-opacity="0.7"/>
    <circle cx="130" cy="0" r="26" fill="#ffffff" fill-opacity="0.65"/>
    <circle cx="130" cy="0" r="10" fill="#4A2E9E" fill-opacity="0.35"/>
    <rect x="-140" y="56" width="120" height="12" rx="6" fill="#ffffff" fill-opacity="0.45"/>
  </g>
</svg>