<svg xmlns="http://www.w3.org/2000/svg" viewBox="0 0 640 640" width="640" height="640" role="img">

  <defs>
    <linearGradient id="bg148" x1="0" y1="0" x2="1" y2="1">
      <stop offset="0%" stop-color="#FDF5E8"/>
      <stop offset="100%" stop-color="#F8E7C8"/>
    </linearGradient>
    <radialGradient id="glow148" cx="30%" cy="22%" r="70%">
      <stop offset="0%" stop-color="#ffffff" stop-opacity="0.92"/>
      <stop offset="100%" stop-color="#ffffff" stop-opacity="0"/>
    </radialGradient>
    <filter id="soft148" x="-30%" y="-30%" width="160%" height="160%">
      <feDropShadow dx="0" dy="10" stdDeviation="12" flood-color="#8A5B12" flood-opacity="0.16"/>
    </filter>
    <pattern id="dots148" width="18" height="18" patternUnits="userSpaceOnUse">
      <circle cx="2" cy="2" r="1.5" fill="#8A5B12" fill-opacity="0.10"/>
    </pattern>
  </defs>
  <rect width="640" height="640" fill="url(#bg148)"/>
  <rect width="640" height="640" fill="url(#dots148)"/>
  <rect width="640" height="640" fill="url(#glow148)"/>
  <ellipse cx="320" cy="524" rx="150" ry="24" fill="#8A5B12" fill-opacity="0.10"/>

  <g transform="translate(320 300) rotate(12)" filter="url(#soft13)">
    <path d="M-180 170 L180 170 L-180 -170 Z" fill="#FFFFFF" fill-opacity="0.95"/>
    <path d="M-180 170 L180 170 L-180 -170 Z" fill="none" stroke="#8A5B12" stroke-opacity="0.18" stroke-width="4"/>
    <path d="M-130 120 L76 120 L-130 -58 Z" fill="none" stroke="#D08A1E" stroke-width="10" stroke-linecap="round" stroke-linejoin="round"/>
    <path d="M-120 -130 A 120 120 0 0 1 -120 -130" fill="none" stroke="#8A5B12" stroke-opacity="0.3" stroke-width="5"/>
    <circle cx="-180" cy="170" r="14" fill="#EFCB8A"/>
    <circle cx="180" cy="170" r="14" fill="#EFCB8A"/>
    <circle cx="-180" cy="-170" r="14" fill="#EFCB8A"/>
  </g>
</svg>