<svg xmlns="http://www.w3.org/2000/svg" viewBox="0 0 640 640" width="640" height="640" role="img">

  <defs>
    <linearGradient id="bg186" x1="0" y1="0" x2="1" y2="1">
      <stop offset="0%" stop-color="#FEF0F4"/>
      <stop offset="100%" stop-color="#FBDEE8"/>
    </linearGradient>
    <radialGradient id="glow186" cx="30%" cy="22%" r="70%">
      <stop offset="0%" stop-color="#ffffff" stop-opacity="0.92"/>
      <stop offset="100%" stop-color="#ffffff" stop-opacity="0"/>
    </radialGradient>
    <filter id="soft186" x="-30%" y="-30%" width="160%" height="160%">
      <feDropShadow dx="0" dy="10" stdDeviation="12" flood-color="#9B2B50" flood-opacity="0.16"/>
    </filter>
    <pattern id="dots186" width="18" height="18" patternUnits="userSpaceOnUse">
      <circle cx="2" cy="2" r="1.5" fill="#9B2B50" fill-opacity="0.10"/>
    </pattern>
  </defs>
  <rect width="640" height="640" fill="url(#bg186)"/>
  <rect width="640" height="640" fill="url(#dots186)"/>
  <rect width="640" height="640" fill="url(#glow186)"/>
  <ellipse cx="320" cy="524" rx="150" ry="24" fill="#9B2B50" fill-opacity="0.10"/>

  <g filter="url(#soft22)">
    <g transform="translate(320 300)">
      <rect x="-160" y="60" width="320" height="110" rx="26" fill="#9B2B50"/>
      <rect x="-160" y="60" width="320" height="110" rx="26" fill="#ffffff" fill-opacity="0.08"/>
      <rect x="-118" y="86" width="236" height="18" rx="9" fill="#9B2B50" fill-opacity="0.35"/>
      <rect x="-118" y="-140" width="26" height="210" rx="12" fill="#E5306A"/>
      <rect x="-70" y="-96" width="26" height="166" rx="12" fill="#F5A7C4"/>
      <rect x="-22" y="-168" width="26" height="238" rx="12" fill="#9B2B50" fill-opacity="0.7"/>
      <rect x="26" y="-56" width="26" height="126" rx="12" fill="#E5306A" fill-opacity="0.7"/>
      <rect x="74" y="-120" width="26" height="190" rx="12" fill="#F5A7C4" fill-opacity="0.85"/>
    </g>
  </g>
</svg>