<svg xmlns="http://www.w3.org/2000/svg" viewBox="0 0 640 640" width="640" height="640" role="img">

  <defs>
    <linearGradient id="bg190" x1="0" y1="0" x2="1" y2="1">
      <stop offset="0%" stop-color="#FDF5E8"/>
      <stop offset="100%" stop-color="#F8E7C8"/>
    </linearGradient>
    <radialGradient id="glow190" cx="30%" cy="22%" r="70%">
      <stop offset="0%" stop-color="#ffffff" stop-opacity="0.92"/>
      <stop offset="100%" stop-color="#ffffff" stop-opacity="0"/>
    </radialGradient>
    <filter id="soft190" x="-30%" y="-30%" width="160%" height="160%">
      <feDropShadow dx="0" dy="10" stdDeviation="12" flood-color="#8A5B12" flood-opacity="0.16"/>
    </filter>
    <pattern id="dots190" width="18" height="18" patternUnits="userSpaceOnUse">
      <circle cx="2" cy="2" r="1.5" fill="#8A5B12" fill-opacity="0.10"/>
    </pattern>
  </defs>
  <rect width="640" height="640" fill="url(#bg190)"/>
  <rect width="640" height="640" fill="url(#dots190)"/>
  <rect width="640" height="640" fill="url(#glow190)"/>
  <ellipse cx="320" cy="524" rx="150" ry="24" fill="#8A5B12" fill-opacity="0.10"/>

  <g transform="translate(320 300) rotate(-8)" filter="url(#soft23)">
    <rect x="-140" y="-190" width="280" height="380" rx="34" fill="#8A5B12"/>
    <rect x="-112" y="-162" width="224" height="82" rx="14" fill="#EFCB8A" fill-opacity="0.85"/>
    <rect x="-88" y="-138" width="120" height="26" rx="8" fill="#8A5B12" fill-opacity="0.55"/>
    <rect x="-112" y="-56" width="62" height="44" rx="14" fill="#ffffff" fill-opacity="0.22"/><rect x="-34" y="-56" width="62" height="44" rx="14" fill="#ffffff" fill-opacity="0.22"/><rect x="44" y="-56" width="62" height="44" rx="14" fill="#ffffff" fill-opacity="0.22"/><rect x="-112" y="2" width="62" height="44" rx="14" fill="#ffffff" fill-opacity="0.22"/><rect x="-34" y="2" width="62" height="44" rx="14" fill="#ffffff" fill-opacity="0.22"/><rect x="44" y="2" width="62" height="44" rx="14" fill="#ffffff" fill-opacity="0.22"/><rect x="-112" y="60" width="62" height="44" rx="14" fill="#ffffff" fill-opacity="0.22"/><rect x="-34" y="60" width="62" height="44" rx="14" fill="#ffffff" fill-opacity="0.22"/><rect x="44" y="60" width="62" height="44" rx="14" fill="#ffffff" fill-opacity="0.22"/><rect x="-112" y="118" width="62" height="44" rx="14" fill="#ffffff" fill-opacity="0.22"/><rect x="-34" y="118" width="62" height="44" rx="14" fill="#ffffff" fill-opacity="0.22"/><rect x="44" y="118" width="62" height="44" rx="14" fill="#D08A1E" fill-opacity="1"/>
  </g>
</svg>