<svg xmlns="http://www.w3.org/2000/svg" viewBox="0 0 640 640" width="640" height="640" role="img">

  <defs>
    <linearGradient id="bg194" x1="0" y1="0" x2="1" y2="1">
      <stop offset="0%" stop-color="#F3F0FE"/>
      <stop offset="100%" stop-color="#E4DCFD"/>
    </linearGradient>
    <radialGradient id="glow194" cx="30%" cy="22%" r="70%">
      <stop offset="0%" stop-color="#ffffff" stop-opacity="0.92"/>
      <stop offset="100%" stop-color="#ffffff" stop-opacity="0"/>
    </radialGradient>
    <filter id="soft194" x="-30%" y="-30%" width="160%" height="160%">
      <feDropShadow dx="0" dy="10" stdDeviation="12" flood-color="#4A2E9E" flood-opacity="0.16"/>
    </filter>
    <pattern id="dots194" width="18" height="18" patternUnits="userSpaceOnUse">
      <circle cx="2" cy="2" r="1.5" fill="#4A2E9E" fill-opacity="0.10"/>
    </pattern>
  </defs>
  <rect width="640" height="640" fill="url(#bg194)"/>
  <rect width="640" height="640" fill="url(#dots194)"/>
  <rect width="640" height="640" fill="url(#glow194)"/>
  <ellipse cx="320" cy="524" rx="150" ry="24" fill="#4A2E9E" fill-opacity="0.10"/>

  <g transform="translate(320 300)" filter="url(#soft24)">
    <path d="M-40 -190 L40 -190 L40 -110 L86 -60 L86 140 Q86 176 50 176 L-50 176 Q-86 176 -86 140 L-86 -60 L-40 -110 Z" fill="#4A2E9E"/>
    <path d="M-40 -190 L40 -190 L40 -110 L86 -60 L86 20 L-86 20 L-86 -60 L-40 -110 Z" fill="#ffffff" fill-opacity="0.14"/>
    <rect x="-52" y="-206" width="104" height="26" rx="12" fill="#B9A6F5"/>
    <rect x="-62" y="52" width="124" height="82" rx="16" fill="#ffffff" fill-opacity="0.9"/>
    <rect x="-44" y="76" width="88" height="12" rx="6" fill="#7C4DE8"/>
    <rect x="-44" y="98" width="60" height="10" rx="5" fill="#4A2E9E" fill-opacity="0.22"/>
  </g>
</svg>