<svg xmlns="http://www.w3.org/2000/svg" viewBox="0 0 640 640" width="640" height="640" role="img">

  <defs>
    <linearGradient id="bg196" x1="0" y1="0" x2="1" y2="1">
      <stop offset="0%" stop-color="#EEF4FF"/>
      <stop offset="100%" stop-color="#DCE8FF"/>
    </linearGradient>
    <radialGradient id="glow196" cx="30%" cy="22%" r="70%">
      <stop offset="0%" stop-color="#ffffff" stop-opacity="0.92"/>
      <stop offset="100%" stop-color="#ffffff" stop-opacity="0"/>
    </radialGradient>
    <filter id="soft196" x="-30%" y="-30%" width="160%" height="160%">
      <feDropShadow dx="0" dy="10" stdDeviation="12" flood-color="#2A46A6" flood-opacity="0.16"/>
    </filter>
    <pattern id="dots196" width="18" height="18" patternUnits="userSpaceOnUse">
      <circle cx="2" cy="2" r="1.5" fill="#2A46A6" fill-opacity="0.10"/>
    </pattern>
  </defs>
  <rect width="640" height="640" fill="url(#bg196)"/>
  <rect width="640" height="640" fill="url(#dots196)"/>
  <rect width="640" height="640" fill="url(#glow196)"/>
  <ellipse cx="320" cy="524" rx="150" ry="24" fill="#2A46A6" fill-opacity="0.10"/>

  <g transform="translate(320 300) rotate(-7)" filter="url(#soft25)">
    <path d="M-180 -100 L-30 -100 L-6 -68 L180 -68 L180 150 Q180 172 158 172 L-158 172 Q-180 172 -180 150 Z" fill="#4A73E8"/>
    <path d="M-180 -100 L-30 -100 L-6 -68 L180 -68 L180 150 Q180 172 158 172 L-158 172 Q-180 172 -180 150 Z" fill="#ffffff" fill-opacity="0.14"/>
    <path d="M-180 -52 L180 -52 L180 8 L-180 8 Z" fill="#2A46A6" fill-opacity="0.22"/>
    <rect x="-150" y="46" width="140" height="18" rx="9" fill="#ffffff" fill-opacity="0.55"/>
    <rect x="-150" y="82" width="96" height="14" rx="7" fill="#ffffff" fill-opacity="0.35"/>
  </g>
</svg>