<svg xmlns="http://www.w3.org/2000/svg" viewBox="0 0 640 640" width="640" height="640" role="img">

  <defs>
    <linearGradient id="bg205" x1="0" y1="0" x2="1" y2="1">
      <stop offset="0%" stop-color="#F3F0FE"/>
      <stop offset="100%" stop-color="#E4DCFD"/>
    </linearGradient>
    <radialGradient id="glow205" cx="30%" cy="22%" r="70%">
      <stop offset="0%" stop-color="#ffffff" stop-opacity="0.92"/>
      <stop offset="100%" stop-color="#ffffff" stop-opacity="0"/>
    </radialGradient>
    <filter id="soft205" x="-30%" y="-30%" width="160%" height="160%">
      <feDropShadow dx="0" dy="10" stdDeviation="12" flood-color="#4A2E9E" flood-opacity="0.16"/>
    </filter>
    <pattern id="dots205" width="18" height="18" patternUnits="userSpaceOnUse">
      <circle cx="2" cy="2" r="1.5" fill="#4A2E9E" fill-opacity="0.10"/>
    </pattern>
  </defs>
  <rect width="640" height="640" fill="url(#bg205)"/>
  <rect width="640" height="640" fill="url(#dots205)"/>
  <rect width="640" height="640" fill="url(#glow205)"/>
  <ellipse cx="320" cy="524" rx="150" ry="24" fill="#4A2E9E" fill-opacity="0.10"/>

  <g filter="url(#soft27)">
    <rect x="-210" y="-60" width="420" height="120" rx="20" fill="#4A2E9E"/>
    <rect x="-210" y="-60" width="420" height="120" rx="20" fill="#ffffff" fill-opacity="0.08"/>
    <g transform="translate(26 300)"><rect x="-16" y="-172" width="32" height="112" rx="8" fill="#7C4DE8"/><path d="M-16 -172 L16 -172 L0 -216 Z" fill="#7C4DE8" fill-opacity="0.8"/></g><g transform="translate(110 300)"><rect x="-16" y="-172" width="32" height="112" rx="8" fill="#4A2E9E"/><path d="M-16 -172 L16 -172 L0 -216 Z" fill="#4A2E9E" fill-opacity="0.8"/></g><g transform="translate(194 300)"><rect x="-16" y="-172" width="32" height="112" rx="8" fill="#B9A6F5"/><path d="M-16 -172 L16 -172 L0 -216 Z" fill="#B9A6F5" fill-opacity="0.8"/></g><g transform="translate(278 300)"><rect x="-16" y="-172" width="32" height="112" rx="8" fill="#7C4DE8"/><path d="M-16 -172 L16 -172 L0 -216 Z" fill="#7C4DE8" fill-opacity="0.8"/></g><g transform="translate(362 300)"><rect x="-16" y="-172" width="32" height="112" rx="8" fill="#B9A6F5"/><path d="M-16 -172 L16 -172 L0 -216 Z" fill="#B9A6F5" fill-opacity="0.8"/></g><g transform="translate(446 300)"><rect x="-16" y="-172" width="32" height="112" rx="8" fill="#4A2E9E"/><path d="M-16 -172 L16 -172 L0 -216 Z" fill="#4A2E9E" fill-opacity="0.8"/></g><g transform="translate(530 300)"><rect x="-16" y="-172" width="32" height="112" rx="8" fill="#7C4DE8"/><path d="M-16 -172 L16 -172 L0 -216 Z" fill="#7C4DE8" fill-opacity="0.8"/></g><g transform="translate(614 300)"><rect x="-16" y="-172" width="32" height="112" rx="8" fill="#B9A6F5"/><path d="M-16 -172 L16 -172 L0 -216 Z" fill="#B9A6F5" fill-opacity="0.8"/></g>
    <rect x="-210" y="60" width="420" height="16" rx="8" fill="#4A2E9E" fill-opacity="0.2"/>
  </g>
</svg>