<svg xmlns="http://www.w3.org/2000/svg" viewBox="0 0 640 640" width="640" height="640" role="img">

  <defs>
    <linearGradient id="bg116" x1="0" y1="0" x2="1" y2="1">
      <stop offset="0%" stop-color="#FDF5E8"/>
      <stop offset="100%" stop-color="#F8E7C8"/>
    </linearGradient>
    <radialGradient id="glow116" cx="30%" cy="22%" r="70%">
      <stop offset="0%" stop-color="#ffffff" stop-opacity="0.92"/>
      <stop offset="100%" stop-color="#ffffff" stop-opacity="0"/>
    </radialGradient>
    <filter id="soft116" x="-30%" y="-30%" width="160%" height="160%">
      <feDropShadow dx="0" dy="10" stdDeviation="12" flood-color="#8A5B12" flood-opacity="0.16"/>
    </filter>
    <pattern id="dots116" width="18" height="18" patternUnits="userSpaceOnUse">
      <circle cx="2" cy="2" r="1.5" fill="#8A5B12" fill-opacity="0.10"/>
    </pattern>
  </defs>
  <rect width="640" height="640" fill="url(#bg116)"/>
  <rect width="640" height="640" fill="url(#dots116)"/>
  <rect width="640" height="640" fill="url(#glow116)"/>
  <ellipse cx="320" cy="524" rx="150" ry="24" fill="#8A5B12" fill-opacity="0.10"/>

  <g transform="translate(320 300) rotate(6)" filter="url(#soft5)">
    <rect x="-150" y="-186" width="300" height="372" rx="22" fill="#D08A1E"/>
    <rect x="-150" y="-186" width="150" height="372" rx="22" fill="#ffffff" fill-opacity="0.14"/>
    <rect x="-126" y="-162" width="252" height="324" rx="14" fill="none" stroke="#ffffff" stroke-opacity="0.45" stroke-width="3"/>
    <circle cx="0" cy="-40" r="58" fill="#ffffff" fill-opacity="0.16"/>
    <circle cx="0" cy="-40" r="34" fill="none" stroke="#ffffff" stroke-opacity="0.7" stroke-width="4"/>
    <rect x="-70" y="46" width="140" height="12" rx="6" fill="#ffffff" fill-opacity="0.55"/>
    <rect x="-46" y="76" width="92" height="10" rx="5" fill="#ffffff" fill-opacity="0.32"/>
  </g>
</svg>