<svg xmlns="http://www.w3.org/2000/svg" viewBox="0 0 640 640" width="640" height="640" role="img">

  <defs>
    <linearGradient id="bg121" x1="0" y1="0" x2="1" y2="1">
      <stop offset="0%" stop-color="#EEF4FF"/>
      <stop offset="100%" stop-color="#DCE8FF"/>
    </linearGradient>
    <radialGradient id="glow121" cx="30%" cy="22%" r="70%">
      <stop offset="0%" stop-color="#ffffff" stop-opacity="0.92"/>
      <stop offset="100%" stop-color="#ffffff" stop-opacity="0"/>
    </radialGradient>
    <filter id="soft121" x="-30%" y="-30%" width="160%" height="160%">
      <feDropShadow dx="0" dy="10" stdDeviation="12" flood-color="#2A46A6" flood-opacity="0.16"/>
    </filter>
    <pattern id="dots121" width="18" height="18" patternUnits="userSpaceOnUse">
      <circle cx="2" cy="2" r="1.5" fill="#2A46A6" fill-opacity="0.10"/>
    </pattern>
  </defs>
  <rect width="640" height="640" fill="url(#bg121)"/>
  <rect width="640" height="640" fill="url(#dots121)"/>
  <rect width="640" height="640" fill="url(#glow121)"/>
  <ellipse cx="320" cy="524" rx="150" ry="24" fill="#2A46A6" fill-opacity="0.10"/>

  <g transform="translate(320 300) rotate(-14)" filter="url(#soft6)">
    <rect x="-150" y="-92" width="300" height="184" rx="28" fill="#FFFFFF"/>
    <rect x="-150" y="-92" width="300" height="92" rx="28" fill="#4A73E8"/>
    <rect x="-150" y="-24" width="300" height="24" fill="#2A46A6" fill-opacity="0.12"/>
    <rect x="-150" y="24" width="300" height="68" rx="28" fill="#9BB9FB" fill-opacity="0.35"/>
    <rect x="-118" y="-62" width="112" height="20" rx="10" fill="#ffffff" fill-opacity="0.65"/>
    <rect x="-118" y="56" width="180" height="14" rx="7" fill="#2A46A6" fill-opacity="0.16"/>
  </g>
</svg>