<svg xmlns="http://www.w3.org/2000/svg" viewBox="0 0 1200 760" width="1200" height="760" role="img">

  <defs>
    <linearGradient id="bg70" x1="0" y1="0" x2="1" y2="1">
      <stop offset="0%" stop-color="#EEF4FF"/>
      <stop offset="100%" stop-color="#DCE8FF"/>
    </linearGradient>
    <radialGradient id="glow70" cx="30%" cy="22%" r="70%">
      <stop offset="0%" stop-color="#ffffff" stop-opacity="0.92"/>
      <stop offset="100%" stop-color="#ffffff" stop-opacity="0"/>
    </radialGradient>
    <filter id="soft70" x="-30%" y="-30%" width="160%" height="160%">
      <feDropShadow dx="0" dy="10" stdDeviation="12" flood-color="#2A46A6" flood-opacity="0.16"/>
    </filter>
    <pattern id="dots70" width="18" height="18" patternUnits="userSpaceOnUse">
      <circle cx="2" cy="2" r="1.5" fill="#2A46A6" fill-opacity="0.10"/>
    </pattern>
  </defs>
  <rect width="640" height="640" fill="url(#bg70)"/>
  <rect width="640" height="640" fill="url(#dots70)"/>
  <rect width="640" height="640" fill="url(#glow70)"/>
  <ellipse cx="320" cy="524" rx="150" ry="24" fill="#2A46A6" fill-opacity="0.10"/>

  <g transform="translate(820 400)">
    <ellipse cx="0" cy="212" rx="250" ry="34" fill="#2A46A6" fill-opacity="0.12"/>
    <g transform="translate(-90 10) rotate(-12)">
      <rect x="-30" y="-240" width="60" height="300" rx="26" fill="#4A73E8"/>
      <rect x="-30" y="-240" width="60" height="300" rx="26" fill="#ffffff" fill-opacity="0.16"/>
      <path d="M-30 60 L30 60 L22 132 Q16 154 0 156 Q-16 154 -22 132 Z" fill="#9BB9FB"/>
    </g>
    <g transform="translate(20 -40) rotate(8)">
      <rect x="-120" y="-220" width="240" height="380" rx="28" fill="#FFFFFF"/>
      <rect x="-120" y="-220" width="240" height="380" rx="28" fill="none" stroke="#2A46A6" stroke-opacity="0.12" stroke-width="4"/>
      <rect x="-92" y="-192" width="184" height="150" rx="16" fill="#9BB9FB" fill-opacity="0.5"/>
      <line x1="-92" y1="-8" x2="92" y2="-8" stroke="#2A46A6" stroke-opacity="0.16" stroke-width="5" stroke-linecap="round"/><line x1="-92" y1="26" x2="92" y2="26" stroke="#2A46A6" stroke-opacity="0.16" stroke-width="5" stroke-linecap="round"/><line x1="-92" y1="60" x2="92" y2="60" stroke="#2A46A6" stroke-opacity="0.16" stroke-width="5" stroke-linecap="round"/><line x1="-92" y1="94" x2="92" y2="94" stroke="#2A46A6" stroke-opacity="0.16" stroke-width="5" stroke-linecap="round"/>
      <rect x="-52" y="-220" width="104" height="18" rx="9" fill="#4A73E8"/>
    </g>
    <g transform="translate(180 -20) rotate(24)">
      <rect x="-22" y="-200" width="44" height="220" rx="18" fill="#2A46A6"/>
      <path d="M-22 20 L22 20 L14 76 Q10 92 0 94 Q-10 92 -14 76 Z" fill="#9BB9FB"/>
    </g>
    <circle cx="-260" cy="-160" r="26" fill="#4A73E8" fill-opacity="0.5"/>
    <circle cx="290" cy="-230" r="18" fill="#9BB9FB" fill-opacity="0.7"/>
    <rect x="-330" y="150" width="120" height="120" rx="28" fill="#9BB9FB" fill-opacity="0.45" transform="rotate(18 -270 210)"/>
    <rect x="240" y="120" width="140" height="140" rx="30" fill="#ffffff" fill-opacity="0.55" transform="rotate(-14 310 190)"/>
  </g>
</svg>